<?xml version="1.0" encoding="UTF-8"?>
<svg version="1.1" xmlns="http://www.w3.org/2000/svg" width="512" height="512">
<path d="M0 0 C168.96 0 337.92 0 512 0 C512 168.96 512 337.92 512 512 C343.04 512 174.08 512 0 512 C0 343.04 0 174.08 0 0 Z " fill="#FCFCFB" transform="translate(0,0)"/>
<path d="M0 0 C6.49988634 1.54277458 12.66498045 3.74826988 18.76171875 6.46484375 C19.4371875 6.76132813 20.11265625 7.0578125 20.80859375 7.36328125 C37.1721013 15.02140279 49.07439281 27.36305335 57.51171875 43.02734375 C57.90109619 43.74792969 58.29047363 44.46851563 58.69165039 45.2109375 C59.24453735 46.26667969 59.24453735 46.26667969 59.80859375 47.34375 C60.13698242 47.96838135 60.46537109 48.5930127 60.80371094 49.23657227 C62.09279059 52.23489794 62.90978466 55.31842087 63.76171875 58.46484375 C63.77630127 57.29912842 63.79088379 56.13341309 63.8059082 54.93237305 C63.86384992 50.61028253 63.94108269 46.28871528 64.02416992 41.96704102 C64.05743877 40.09603361 64.0854646 38.22492537 64.1081543 36.35375977 C64.14166463 33.66508992 64.1939774 30.97734577 64.25 28.2890625 C64.25638992 27.45146896 64.26277985 26.61387543 64.2693634 25.75090027 C64.41811814 19.88475656 64.41811814 19.88475656 66.16815186 17.74604797 C69.19231285 15.31466725 72.97361735 15.95306319 76.69921875 15.96484375 C77.51068359 15.93648437 78.32214844 15.908125 79.15820312 15.87890625 C85.09308663 15.85943165 85.09308663 15.85943165 88.19921875 18.671875 C89.67895729 21.31690765 90.84629509 23.78630774 91.82421875 26.65234375 C92.15550781 27.61269531 92.48679687 28.57304687 92.828125 29.5625 C93.685337 32.2273892 94.48552677 34.90044344 95.26171875 37.58984375 C96.20415311 40.84226667 97.3244134 43.83718121 98.76171875 46.90234375 C100.6974253 51.06080079 101.8769053 55.23946637 102.953125 59.69140625 C103.74995493 62.42449443 104.81238456 64.94492851 105.96118164 67.54589844 C107.42218478 71.04802855 108.53493779 74.66814932 109.69921875 78.27734375 C111.82597235 84.77450293 114.07447965 91.1735428 116.76171875 97.46484375 C118.10673622 94.13611337 119.43719784 90.80178192 120.76171875 87.46484375 C121.39207031 85.87736328 121.39207031 85.87736328 122.03515625 84.2578125 C124.28823281 78.50222602 126.31958517 72.77953007 128.0234375 66.83984375 C128.77537127 64.42092454 129.67030437 62.11829971 130.63671875 59.77734375 C134.06365447 51.43977984 136.81640251 42.80703566 139.32421875 34.15234375 C143.79230289 19.05678265 143.79230289 19.05678265 147.76171875 16.46484375 C150.66765402 16.13935554 153.29729891 16.0005418 156.19921875 16.02734375 C156.96298828 16.00736328 157.72675781 15.98738281 158.51367188 15.96679688 C159.25423828 15.96744141 159.99480469 15.96808594 160.7578125 15.96875 C161.42997803 15.96689697 162.10214355 15.96504395 162.79467773 15.96313477 C165.8953595 16.75398757 166.85710528 17.8634524 168.76171875 20.46484375 C169.37502805 23.86766857 169.30775728 27.24389465 169.27929688 30.69360352 C169.28981079 32.25269943 169.28981079 32.25269943 169.30053711 33.84329224 C169.31815197 37.28121603 169.30648225 40.71831774 169.29296875 44.15625 C169.29566244 46.54231423 169.29954383 48.9283774 169.30456543 51.31443787 C169.31046507 56.31544443 169.30188141 61.3161653 169.28320312 66.31713867 C169.26040141 72.73582193 169.2735421 79.15383667 169.29749298 85.57249546 C169.3119276 90.49921228 169.30735584 95.42576984 169.29698181 100.35249138 C169.29430872 102.71964535 169.29760464 105.08681366 169.30690002 107.45395088 C169.31702816 110.75818476 169.30161638 114.06132628 169.27929688 117.36547852 C169.2873938 118.34893753 169.29549072 119.33239655 169.30383301 120.34565735 C169.29255371 121.24431519 169.28127441 122.14297302 169.26965332 123.06886292 C169.26739117 124.24050413 169.26739117 124.24050413 169.26508331 125.43581486 C168.76171875 127.46484375 168.76171875 127.46484375 166.94139862 129.21469021 C163.80757747 131.01209067 161.22044899 130.86228882 157.63671875 130.83984375 C156.39664062 130.84757813 155.1565625 130.8553125 153.87890625 130.86328125 C152.85023438 130.73179687 151.8215625 130.6003125 150.76171875 130.46484375 C148.45296661 127.00171554 148.49345846 125.61380401 148.44287109 121.5246582 C148.41306656 119.69309929 148.41306656 119.69309929 148.38265991 117.82453918 C148.3653331 115.84631416 148.3653331 115.84631416 148.34765625 113.828125 C148.32894528 112.46476569 148.30937192 111.10141796 148.28897095 109.73808289 C148.23763591 106.1526472 148.19801776 102.56717397 148.16082764 98.98156738 C148.12079644 95.32160137 148.0697001 91.66179174 148.01953125 88.00195312 C147.9227558 80.82302395 147.83835643 73.64401914 147.76171875 66.46484375 C147.36339844 67.52703125 146.96507812 68.58921875 146.5546875 69.68359375 C143.3671875 78.18359375 143.3671875 78.18359375 142.56591797 80.31976318 C142.02539825 81.7615183 141.48536687 83.20345658 140.94580078 84.64556885 C139.73549046 87.8789574 138.51668586 91.10792349 137.26171875 94.32421875 C134.51638813 101.41617283 132.19193492 108.34629274 130.47265625 115.76953125 C129.01618624 121.29131317 127.13040997 126.63086213 122.76171875 130.46484375 C119.6322941 132.02955608 116.15089652 132.16186333 112.76171875 131.46484375 C108.86951969 128.50706677 107.35852311 124.73322225 105.69921875 120.27734375 C105.43955322 119.60316406 105.1798877 118.92898438 104.91235352 118.234375 C103.04871038 113.35382388 101.34520465 108.44151371 99.76171875 103.46484375 C97.13082428 95.45777364 94.4401955 87.47564317 91.63671875 79.52734375 C91.39526123 78.84220703 91.15380371 78.15707031 90.9050293 77.45117188 C89.6917572 74.02761106 88.45070437 70.61639134 87.17236328 67.21655273 C86.90682648 66.50989975 86.64128967 65.80324677 86.3677063 65.07518005 C86.16773041 64.54376907 85.96775452 64.01235809 85.76171875 63.46484375 C85.74958847 64.67633842 85.74958847 64.67633842 85.73721313 65.91230774 C85.65930729 73.51976359 85.57202898 81.12702653 85.47419167 88.73425007 C85.4242226 92.64530698 85.37789275 96.55633681 85.33984375 100.4675293 C85.30299844 104.2412866 85.25664082 108.01481758 85.20365524 111.78838158 C85.18510722 113.22885358 85.17000074 114.6693741 85.15837479 116.10991859 C85.1415201 118.12586568 85.11134981 120.14168819 85.08056641 122.1574707 C85.06724274 123.30552689 85.05391907 124.45358307 85.04019165 125.63642883 C84.76171875 128.46484375 84.76171875 128.46484375 82.76171875 131.46484375 C79.64453125 131.8984375 79.64453125 131.8984375 75.88671875 131.90234375 C74.65179688 131.92167969 73.416875 131.94101562 72.14453125 131.9609375 C68.12850548 131.37198222 67.23056505 130.60254216 64.76171875 127.46484375 C64.21582031 124.80761719 64.21582031 124.80761719 64.15234375 121.82421875 C64.10400391 120.21933594 64.10400391 120.21933594 64.0546875 118.58203125 C64.04050781 117.47085938 64.02632812 116.3596875 64.01171875 115.21484375 C63.98207031 114.08820313 63.95242188 112.9615625 63.921875 111.80078125 C63.85124125 109.02252037 63.80420856 106.24367755 63.76171875 103.46484375 C62.77171875 106.76484375 61.78171875 110.06484375 60.76171875 113.46484375 C60.10171875 113.46484375 59.44171875 113.46484375 58.76171875 113.46484375 C58.60703125 114.29628906 58.60703125 114.29628906 58.44921875 115.14453125 C53.62167964 131.43747575 37.11617315 143.05646147 23.234375 151.15234375 C5.7603347 160.42766372 -17.12006157 161.71065159 -36.15625 156.5625 C-51.39613052 151.13486194 -63.97373836 143.2351427 -74.23828125 130.46484375 C-74.91632813 130.68140625 -75.594375 130.89796875 -76.29296875 131.12109375 C-82.80871478 133.07040281 -88.45855777 134.01320374 -95.23828125 133.46484375 C-96.7696875 133.34302734 -96.7696875 133.34302734 -98.33203125 133.21875 C-108.3647152 132.06021388 -117.68643646 129.16115892 -124.23828125 121.08984375 C-131.5978167 110.39971562 -133.54987165 100.83866136 -133.50390625 87.96875 C-133.5058197 86.78063217 -133.50773315 85.59251434 -133.50970459 84.36839294 C-133.51106095 81.86465238 -133.50740303 79.36090465 -133.49902344 76.85717773 C-133.48832599 73.04329481 -133.49893291 69.22988392 -133.51171875 65.41601562 C-133.51039687 62.97525939 -133.5078339 60.53450344 -133.50390625 58.09375 C-133.50795471 56.96224014 -133.51200317 55.83073029 -133.51617432 54.66493225 C-133.44446946 42.44206129 -131.42652766 34.79799541 -123.23828125 25.46484375 C-116.25013231 18.81992413 -108.08913092 14.97303797 -98.421875 15.015625 C-97.53628906 15.04011719 -96.65070313 15.06460938 -95.73828125 15.08984375 C-94.85269531 15.09113281 -93.96710938 15.09242188 -93.0546875 15.09375 C-81.61713695 15.24490706 -73.51511858 17.64430133 -65.03515625 25.5078125 C-59.22918517 31.58257854 -55.19787587 38.27848371 -54.80078125 46.83984375 C-55.41369446 51.91826747 -55.41369446 51.91826747 -58.23828125 54.46484375 C-61.10866177 54.76045451 -63.5758287 54.84427391 -66.42578125 54.71484375 C-67.17537109 54.69679687 -67.92496094 54.67875 -68.69726562 54.66015625 C-70.54481835 54.61308484 -72.39171284 54.54134141 -74.23828125 54.46484375 C-74.480625 53.72878906 -74.72296875 52.99273437 -74.97265625 52.234375 C-78.1101935 42.95804978 -78.1101935 42.95804978 -85.30078125 36.65234375 C-90.83939057 34.59616475 -97.09031103 34.20875711 -102.6171875 36.4140625 C-106.78553573 38.84751809 -108.99740485 41.13495359 -111.23828125 45.46484375 C-111.68620699 48.13442521 -111.68620699 48.13442521 -111.62646484 50.97021484 C-111.63592133 52.0483847 -111.64537781 53.12655457 -111.65512085 54.23739624 C-111.64904816 55.39268829 -111.64297546 56.54798035 -111.63671875 57.73828125 C-111.63958893 58.93538727 -111.64245911 60.13249329 -111.64541626 61.36587524 C-111.64745605 63.89593987 -111.64193219 66.4260203 -111.62939453 68.95605469 C-111.61336889 72.81872065 -111.62923267 76.68033572 -111.6484375 80.54296875 C-111.6464545 83.00390855 -111.64260966 85.4648477 -111.63671875 87.92578125 C-111.64279144 89.07702484 -111.64886414 90.22826843 -111.65512085 91.41439819 C-111.59092316 98.77662245 -111.20275538 104.26674206 -106.0078125 109.87109375 C-100.60188583 112.98197962 -94.2554713 112.10225795 -88.23828125 111.46484375 C-84.43021933 110.3799889 -81.2067268 109.08329681 -79.0859375 105.5390625 C-78.09606065 103.28689937 -78.09606065 103.28689937 -77.48828125 100.02734375 C-75.90597698 95.51777659 -74.30135682 93.94783438 -70.23828125 91.46484375 C-65.73117382 90.44131736 -62.87590262 91.12864339 -58.80078125 93.27734375 C-56.23828125 95.46484375 -56.23828125 95.46484375 -55.23828125 98.46484375 C-55.1184898 100.42050878 -55.06299629 102.38055141 -55.05078125 104.33984375 C-55.03660156 105.36851562 -55.02242188 106.3971875 -55.0078125 107.45703125 C-55.24246756 110.51947863 -55.94643553 112.69733236 -57.23828125 115.46484375 C-47.30343372 126.84184657 -34.56929166 134.39953573 -19.24023438 135.62451172 C-2.65580234 136.53537045 12.8459879 132.48341472 25.76171875 121.58984375 C38.27714479 109.58620093 40.74798913 96.69824724 41.76171875 79.46484375 C19.65171875 79.46484375 -2.45828125 79.46484375 -25.23828125 79.46484375 C-24.24828125 83.42484375 -24.24828125 83.42484375 -23.23828125 87.46484375 C-22.6060112 87.4729306 -21.97374115 87.48101746 -21.3223114 87.48934937 C-14.75250844 87.5752841 -8.18301107 87.67478273 -1.61352539 87.78222656 C0.83954748 87.82055329 3.29267726 87.85539957 5.74584961 87.88671875 C9.2682736 87.93228882 12.7903045 87.99029696 16.3125 88.05078125 C17.41257889 88.06233246 18.51265778 88.07388367 19.64607239 88.08578491 C20.66690414 88.1056546 21.6877359 88.12552429 22.73950195 88.14599609 C23.63884964 88.15931976 24.53819733 88.17264343 25.46479797 88.18637085 C27.76171875 88.46484375 27.76171875 88.46484375 30.76171875 90.46484375 C31.125 92.55859375 31.125 92.55859375 31.07421875 94.96484375 C31.07035156 95.75890625 31.06648437 96.55296875 31.0625 97.37109375 C30.76171875 99.46484375 30.76171875 99.46484375 28.76171875 101.46484375 C26.69894409 101.70535278 26.69894409 101.70535278 24.12841797 101.69189453 C22.68715042 101.69166794 22.68715042 101.69166794 21.21676636 101.69143677 C20.17714752 101.6811142 19.13752869 101.67079163 18.06640625 101.66015625 C17.00382599 101.65732635 15.94124573 101.65449646 14.84646606 101.65158081 C11.44310376 101.64036014 8.04000189 101.61525212 4.63671875 101.58984375 C2.33333713 101.57981639 0.02995139 101.57069012 -2.2734375 101.5625 C-7.9284747 101.54041468 -13.58335938 101.50691864 -19.23828125 101.46484375 C-18.90828125 102.12484375 -18.57828125 102.78484375 -18.23828125 103.46484375 C-18.10412653 106.13720585 -18.19509584 108.78734863 -18.23828125 111.46484375 C-17.12453125 111.42359375 -16.01078125 111.38234375 -14.86328125 111.33984375 C-11.23828125 111.46484375 -11.23828125 111.46484375 -9.23828125 113.46484375 C-8.67652935 119.6441147 -8.67652935 119.6441147 -10.390625 122.1484375 C-12.98422347 123.99630787 -14.95058096 124.00308639 -18.11328125 124.08984375 C-19.14195312 124.14398438 -20.170625 124.198125 -21.23046875 124.25390625 C-25.05402517 123.2508434 -26.11329679 121.86774354 -28.1796875 118.60009766 C-30.04740404 114.83278933 -30.92331436 110.9327367 -31.80078125 106.83984375 C-32.21478677 105.05406846 -32.63145573 103.26890857 -33.05078125 101.484375 C-33.25058594 100.62279785 -33.45039063 99.7612207 -33.65625 98.87353516 C-34.916575 93.65777741 -36.59423484 88.56934269 -38.23828125 83.46484375 C-40.53737998 76.20178185 -42.65828 68.95186499 -44.46484375 61.55078125 C-46.23115785 54.50336639 -48.15222337 47.48275888 -50.5703125 40.62890625 C-53.21260909 33.13656115 -54.91074781 26.43482421 -55.23828125 18.46484375 C-51.27828125 18.46484375 -47.31828125 18.46484375 -43.23828125 18.46484375 C-42.06812342 22.0887509 -40.90200715 25.71387154 -39.73828125 29.33984375 C-39.40441406 30.37238281 -39.07054687 31.40492188 -38.7265625 32.46875 C-38.41074219 33.45488281 -38.09492188 34.44101563 -37.76953125 35.45703125 C-37.47626953 36.3682373 -37.18300781 37.27944336 -36.88085938 38.21826172 C-36.23828125 40.46484375 -36.23828125 40.46484375 -36.23828125 42.46484375 C-14.78828125 42.13484375 6.66171875 41.80484375 28.76171875 41.46484375 C20.437333 33.75033188 20.437333 33.75033188 11.19921875 28.02734375 C10.55355957 27.69589355 9.90790039 27.36444336 9.24267578 27.02294922 C3.27687788 24.05427237 -1.9509895 22.83929545 -8.49609375 22.09375 C-18.60855748 20.81555268 -18.60855748 20.81555268 -21.48828125 17.90234375 C-22.06578125 17.09796875 -22.64328125 16.29359375 -23.23828125 15.46484375 C-23.73328125 14.96984375 -23.73328125 14.96984375 -24.23828125 14.46484375 C-24.79643009 8.77172558 -23.8400724 5.88990145 -20.23828125 1.46484375 C-14.52415133 -2.3445762 -6.57459594 -1.08651344 0 0 Z " fill="#78C0F8" transform="translate(232.23828125,200.53515625)"/>
<path d="M0 0 C1.22396484 -0.04930664 1.22396484 -0.04930664 2.47265625 -0.09960938 C8.47016772 -0.15342065 8.47016772 -0.15342065 11.56640625 2.640625 C13.04112802 5.28699289 14.20996208 7.76009448 15.1875 10.625 C15.51878906 11.58535156 15.85007812 12.54570312 16.19140625 13.53515625 C17.04861825 16.20004545 17.84880802 18.87309969 18.625 21.5625 C19.56743436 24.81492292 20.68769465 27.80983746 22.125 30.875 C24.06070655 35.03345704 25.24018655 39.21212262 26.31640625 43.6640625 C27.11323618 46.39715068 28.17566581 48.91758476 29.32446289 51.51855469 C30.78546603 55.0206848 31.89821904 58.64080557 33.0625 62.25 C35.1892536 68.74715918 37.4377609 75.14619905 40.125 81.4375 C41.47001747 78.10876962 42.80047909 74.77443817 44.125 71.4375 C44.54523438 70.37917969 44.96546875 69.32085937 45.3984375 68.23046875 C47.65151406 62.47488227 49.68286642 56.75218632 51.38671875 50.8125 C52.13865252 48.39358079 53.03358562 46.09095596 54 43.75 C57.42693572 35.41243609 60.17968376 26.77969191 62.6875 18.125 C67.15558414 3.0294389 67.15558414 3.0294389 71.125 0.4375 C74.03093527 0.11201179 76.66058016 -0.02680195 79.5625 0 C80.32626953 -0.01998047 81.09003906 -0.03996094 81.87695312 -0.06054688 C82.61751953 -0.05990234 83.35808594 -0.05925781 84.12109375 -0.05859375 C84.79325928 -0.06044678 85.4654248 -0.0622998 86.15795898 -0.06420898 C89.25864075 0.72664382 90.22038653 1.83610865 92.125 4.4375 C92.7383093 7.84032482 92.67103853 11.2165509 92.64257812 14.66625977 C92.6495874 15.70565704 92.65659668 16.74505432 92.66381836 17.81594849 C92.68143322 21.25387228 92.6697635 24.69097399 92.65625 28.12890625 C92.65894369 30.51497048 92.66282508 32.90103365 92.66784668 35.28709412 C92.67374632 40.28810068 92.66516266 45.28882155 92.64648438 50.28979492 C92.62368266 56.70847818 92.63682335 63.12649292 92.66077423 69.54515171 C92.67520885 74.47186853 92.67063709 79.39842609 92.66026306 84.32514763 C92.65758997 86.6923016 92.66088589 89.05946991 92.67018127 91.42660713 C92.68030941 94.73084101 92.66489763 98.03398253 92.64257812 101.33813477 C92.65067505 102.32159378 92.65877197 103.3050528 92.66711426 104.3183136 C92.65019531 105.66630035 92.65019531 105.66630035 92.63293457 107.04151917 C92.63142647 107.82261331 92.62991837 108.60370745 92.62836456 109.40847111 C92.125 111.4375 92.125 111.4375 90.30467987 113.18734646 C87.17085872 114.98474692 84.58373024 114.83494507 81 114.8125 C79.75992188 114.82023437 78.51984375 114.82796875 77.2421875 114.8359375 C76.21351563 114.70445312 75.18484375 114.57296875 74.125 114.4375 C71.81624786 110.97437179 71.85673971 109.58646026 71.80615234 105.49731445 C71.78628265 104.27627518 71.76641296 103.0552359 71.74594116 101.79719543 C71.73438995 100.47837875 71.72283875 99.15956207 71.7109375 97.80078125 C71.69222653 96.43742194 71.67265317 95.07407421 71.6522522 93.71073914 C71.60091716 90.12530345 71.56129901 86.53983022 71.52410889 82.95422363 C71.48407769 79.29425762 71.43298135 75.63444799 71.3828125 71.97460938 C71.28603705 64.7956802 71.20163768 57.61667539 71.125 50.4375 C70.72667969 51.4996875 70.32835937 52.561875 69.91796875 53.65625 C66.73046875 62.15625 66.73046875 62.15625 65.92919922 64.29241943 C65.3886795 65.73417455 64.84864812 67.17611283 64.30908203 68.6182251 C63.09877171 71.85161365 61.87996711 75.08057974 60.625 78.296875 C57.87966938 85.38882908 55.55521617 92.31894899 53.8359375 99.7421875 C52.37946749 105.26396942 50.49369122 110.60351838 46.125 114.4375 C42.99557535 116.00221233 39.51417777 116.13451958 36.125 115.4375 C32.23280094 112.47972302 30.72180436 108.7058785 29.0625 104.25 C28.67300171 103.23873047 28.67300171 103.23873047 28.27563477 102.20703125 C26.41199163 97.32648013 24.7084859 92.41416996 23.125 87.4375 C20.49410553 79.43042989 17.80347675 71.44829942 15 63.5 C14.75854248 62.81486328 14.51708496 62.12972656 14.26831055 61.42382812 C13.05503845 58.00026731 11.81398562 54.58904759 10.53564453 51.18920898 C10.13733932 50.12922951 10.13733932 50.12922951 9.73098755 49.0478363 C9.53101166 48.51642532 9.33103577 47.98501434 9.125 47.4375 C9.11691315 48.24516312 9.10882629 49.05282623 9.10049438 49.88496399 C9.02258854 57.49241984 8.93531023 65.09968278 8.83747292 72.70690632 C8.78750385 76.61796323 8.741174 80.52899306 8.703125 84.44018555 C8.66627969 88.21394285 8.61992207 91.98747383 8.56693649 95.76103783 C8.54838847 97.20150983 8.53328199 98.64203035 8.52165604 100.08257484 C8.50480135 102.09852193 8.47463106 104.11434444 8.44384766 106.13012695 C8.43052399 107.27818314 8.41720032 108.42623932 8.4034729 109.60908508 C8.125 112.4375 8.125 112.4375 6.125 115.4375 C2.97265625 115.8359375 2.97265625 115.8359375 -0.8125 115.8125 C-2.05902344 115.82023437 -3.30554688 115.82796875 -4.58984375 115.8359375 C-7.875 115.4375 -7.875 115.4375 -9.5569334 114.19530582 C-11.23853714 111.95267799 -11.24980201 110.70142097 -11.2492218 107.91416931 C-11.25623611 106.98737869 -11.26325043 106.06058807 -11.27047729 105.10571289 C-11.26283356 104.09105957 -11.25518982 103.07640625 -11.24731445 102.03100586 C-11.25096512 100.9608876 -11.25461578 99.89076935 -11.25837708 98.78822327 C-11.26649859 95.24276984 -11.25285968 91.69777111 -11.23828125 88.15234375 C-11.23776288 85.69519552 -11.2382797 83.23804687 -11.23979187 80.78089905 C-11.23970208 75.62852802 -11.2292573 70.47631323 -11.21118164 65.32397461 C-11.18848247 58.70691087 -11.18795181 52.09007533 -11.19469929 45.47298336 C-11.19803433 40.39878802 -11.19141814 35.32464508 -11.18157005 30.25045967 C-11.17771064 27.80991451 -11.17657289 25.36936354 -11.1781559 22.92881584 C-11.17852513 19.52396327 -11.16594639 16.11940773 -11.1496582 12.71459961 C-11.15213562 11.69792206 -11.15461304 10.68124451 -11.15716553 9.63375854 C-11.15008072 8.70978775 -11.14299591 7.78581696 -11.13569641 6.83384705 C-11.13364354 6.02840926 -11.13159067 5.22297148 -11.12947559 4.39312649 C-10.39328874 -1.26441613 -4.34172975 0.03057556 0 0 Z " fill="#171D49" transform="translate(308.875,216.5625)"/>
<path d="M0 0 C1.90239944 -0.01429802 1.90239944 -0.01429802 3.8432312 -0.02888489 C5.23419217 -0.02862344 6.62515316 -0.02768628 8.01611328 -0.02612305 C9.43856939 -0.03000906 10.86102434 -0.03434354 12.28347778 -0.03910828 C15.26779945 -0.04657714 18.25200284 -0.04627493 21.23632812 -0.04101562 C25.05868506 -0.03522694 28.8805565 -0.05213364 32.70283318 -0.0753603 C35.64196601 -0.09010314 38.58098216 -0.0909685 41.52014542 -0.08785057 C42.92913905 -0.08836374 44.33813922 -0.09360071 45.74709702 -0.10366249 C47.71938117 -0.11601561 49.69176321 -0.10729482 51.6640625 -0.09765625 C52.78610077 -0.09828568 53.90813904 -0.0989151 55.06417847 -0.0995636 C58.28694793 0.31670414 59.66796863 1.00756042 61.96142578 3.2746582 C63.06211381 8.04970184 62.63237839 12.17876895 60.08642578 16.3371582 C57.15700024 19.00810502 55.64527897 19.39946479 51.78710938 19.38818359 C50.49599747 19.3880703 50.49599747 19.3880703 49.17880249 19.38795471 C48.24855255 19.38279343 47.31830261 19.37763214 46.35986328 19.37231445 C45.40826324 19.37089951 44.45666321 19.36948456 43.47622681 19.36802673 C40.42959481 19.36241832 37.38303566 19.3498644 34.33642578 19.3371582 C32.27392684 19.33214429 30.21142675 19.32758119 28.14892578 19.32348633 C23.08637497 19.31329601 18.02398215 19.29372222 12.96142578 19.2746582 C12.96142578 28.1846582 12.96142578 37.0946582 12.96142578 46.2746582 C15.58595703 46.22825195 18.21048828 46.1818457 20.91455078 46.1340332 C23.45961575 46.10282827 26.00465932 46.0785459 28.54980469 46.05493164 C30.3171545 46.0348297 32.08443791 46.00754348 33.8515625 45.97290039 C36.39355863 45.92431811 38.93467474 45.90167595 41.47705078 45.8840332 C42.66007782 45.85306549 42.66007782 45.85306549 43.86700439 45.82147217 C47.48380216 45.81999645 49.52871045 45.94721054 52.45629883 48.16259766 C54.16302327 50.55754869 54.52898378 51.79369042 54.52392578 54.7121582 C54.54583984 55.45336914 54.56775391 56.19458008 54.59033203 56.95825195 C53.6177872 60.54035808 51.83902027 61.97352454 48.96142578 64.2746582 C45.96951135 64.71323087 43.57127693 64.86367596 40.59814453 64.76293945 C39.41017021 64.75232735 39.41017021 64.75232735 38.19819641 64.74150085 C35.68079189 64.71362064 33.16565222 64.6509002 30.64892578 64.5871582 C28.93736948 64.56206682 27.22577813 64.53925511 25.51416016 64.51879883 C21.32835152 64.46807405 17.14740803 64.37022857 12.96142578 64.2746582 C12.96142578 73.8446582 12.96142578 83.4146582 12.96142578 93.2746582 C16.16345703 93.21665039 19.36548828 93.15864258 22.66455078 93.09887695 C25.7655998 93.05988396 28.86662153 93.02952353 31.96777344 93 C34.1231712 92.97485423 36.27848369 92.94073296 38.43359375 92.89746094 C41.5316267 92.83681313 44.62853259 92.80844908 47.72705078 92.78637695 C48.69072571 92.76057053 49.65440063 92.7347641 50.64727783 92.70817566 C57.33390955 92.7053718 57.33390955 92.7053718 60.56347656 95.63525391 C62.11697711 98.56834759 62.55854463 100.46609453 62.58642578 103.7746582 C62.61994141 104.6924707 62.65345703 105.6102832 62.68798828 106.5559082 C61.85506388 109.67265757 60.62949077 111.2186773 58.10830688 113.21270752 C53.29125866 115.59545133 47.64569769 114.9806326 42.39111328 114.9387207 C40.42043381 114.94589615 40.42043381 114.94589615 38.40994263 114.95321655 C35.63757736 114.96056445 32.86602082 114.9499486 30.09375 114.92651367 C26.54456991 114.89796853 22.9972756 114.91447527 19.44816399 114.94437599 C16.05399636 114.96680309 12.66033446 114.95109744 9.26611328 114.9387207 C7.35667435 114.95390244 7.35667435 114.95390244 5.40866089 114.96939087 C4.22708405 114.95363007 3.0455072 114.93786926 1.828125 114.92163086 C0.78921112 114.91765289 -0.24970276 114.91367493 -1.32009888 114.90957642 C-4.03857422 114.2746582 -4.03857422 114.2746582 -6.37487793 112.38160706 C-8.7831314 107.88419943 -8.58211821 103.94506346 -8.52441406 98.91650391 C-8.52821075 97.87535431 -8.53200745 96.83420471 -8.53591919 95.76150513 C-8.54332187 92.32417572 -8.52194946 88.88769356 -8.49951172 85.45043945 C-8.49712757 83.06341145 -8.49622191 80.67638155 -8.49673462 78.28935242 C-8.49360734 73.29011264 -8.4770439 68.2911598 -8.45019531 63.29199219 C-8.4161606 56.87227082 -8.40856831 50.45286396 -8.41008568 44.03306293 C-8.40954292 39.10640948 -8.39859189 34.17982528 -8.38408279 29.25319481 C-8.3777035 26.88522046 -8.37377327 24.51723824 -8.37229538 22.14925575 C-8.36797754 18.8475762 -8.35051076 15.54623601 -8.32910156 12.24462891 C-8.33000793 11.25914566 -8.33091431 10.27366241 -8.33184814 9.25831604 C-8.32331818 8.36247803 -8.31478821 7.46664001 -8.30599976 6.5436554 C-8.30264807 5.76293828 -8.29929638 4.98222116 -8.29584312 4.17784595 C-7.64651667 -0.62565005 -3.93549038 0.01618313 0 0 Z " fill="#181E4B" transform="translate(24.03857421875,217.725341796875)"/>
<path d="M0 0 C1.16478378 -0.00607773 2.32956757 -0.01215546 3.52964783 -0.01841736 C5.41098167 0.01088112 5.41098167 0.01088112 7.33032227 0.04077148 C8.62237076 0.04310287 9.91441925 0.04543427 11.24562073 0.0478363 C13.97871281 0.05399635 16.71098359 0.07666372 19.44384766 0.11230469 C22.93868663 0.15753249 26.4327814 0.17232872 29.92788601 0.1760416 C33.27047265 0.18154919 36.61281003 0.20493223 39.95532227 0.22827148 C41.2075206 0.23363419 42.45971893 0.23899689 43.74986267 0.24452209 C44.91779861 0.26050949 46.08573456 0.27649689 47.2890625 0.29296875 C48.31402328 0.30360855 49.33898407 0.31424835 50.39500427 0.32521057 C53.3956841 0.61752927 55.53518399 1.21389522 58.20922852 2.59936523 C60.22394448 5.62143918 60.54641885 6.51663222 60.64672852 9.97436523 C60.70666992 11.0997168 60.70666992 11.0997168 60.76782227 12.24780273 C59.88806459 15.951398 58.19862243 17.27530674 55.20922852 19.59936523 C51.91397529 20.3422416 48.68238002 20.3208744 45.31469727 20.30639648 C44.36734207 20.32151779 43.41998688 20.3366391 42.44392395 20.35221863 C39.42794996 20.3950927 36.41297688 20.40393343 33.39672852 20.41186523 C31.34787379 20.43500973 29.29904286 20.46037497 27.25024414 20.48803711 C22.23602749 20.5550558 17.22459817 20.57601819 12.20922852 20.59936523 C11.87922852 29.50936523 11.54922852 38.41936523 11.20922852 47.59936523 C13.76157227 47.55295898 16.31391602 47.50655273 18.94360352 47.45874023 C21.41916923 47.42753367 23.89471293 47.40325226 26.37036133 47.37963867 C28.08921131 47.35953896 29.80799304 47.33225435 31.52661133 47.29760742 C33.99911341 47.2490149 36.47071062 47.22638089 38.94360352 47.20874023 C40.09381989 47.17777252 40.09381989 47.17777252 41.26727295 47.1461792 C44.82761489 47.14468614 46.80899275 47.29765388 49.69262695 49.47143555 C51.52199285 52.03820199 51.74741124 53.46838216 51.70922852 56.59936523 C51.71954102 57.44499023 51.72985352 58.29061523 51.74047852 59.16186523 C51.00932275 62.5165799 49.95327367 63.53081055 47.20922852 65.59936523 C44.31957731 65.94846573 41.82330141 66.06752144 38.94360352 65.98999023 C38.15020569 65.98433044 37.35680786 65.97867065 36.53936768 65.97283936 C34.01203378 65.9504967 31.48613186 65.90030699 28.95922852 65.84936523 C27.2431032 65.82929738 25.5269556 65.8110471 23.81079102 65.79467773 C19.60927838 65.75404415 15.41085085 65.67575837 11.20922852 65.59936523 C11.20922852 75.49936523 11.20922852 85.39936523 11.20922852 95.59936523 C16.02967773 95.5471582 16.02967773 95.5471582 20.94750977 95.49389648 C24.05516674 95.47050965 27.16281397 95.45228807 30.27050781 95.43457031 C32.43266172 95.41947079 34.59478494 95.39898953 36.75683594 95.37304688 C39.86213752 95.33671506 42.96703466 95.31965061 46.07250977 95.30639648 C47.04134598 95.29091263 48.01018219 95.27542877 49.00837708 95.25947571 C50.35943794 95.25913582 50.35943794 95.25913582 51.73779297 95.25878906 C52.5305513 95.25212723 53.32330963 95.24546539 54.14009094 95.23860168 C56.75959616 95.69532434 57.62937683 96.4907168 59.20922852 98.59936523 C59.67797852 101.63061523 59.67797852 101.63061523 59.70922852 105.09936523 C59.74016602 106.24405273 59.77110352 107.38874023 59.80297852 108.56811523 C59.20922852 111.59936523 59.20922852 111.59936523 57.05459595 113.26356506 C53.81493919 114.78447024 51.6564087 114.98529734 48.08959961 115.00341797 C46.87839447 115.01610214 45.66718933 115.02878632 44.41928101 115.04185486 C42.47065659 115.0374514 42.47065659 115.0374514 40.48266602 115.03295898 C39.12936135 115.03752266 37.776059 115.04282878 36.42276001 115.04884338 C33.59334871 115.05775882 30.76421994 115.05536756 27.93481445 115.04541016 C24.30844364 115.0338914 20.6830424 115.05418256 17.05679893 115.08332729 C14.26522637 115.10166247 11.4738877 115.10140287 8.68227005 115.09568977 C6.6952424 115.09546186 4.70823679 115.1123723 2.72128296 115.12950134 C1.51638214 115.12012039 0.31148132 115.11073944 -0.92993164 115.10107422 C-2.52280502 115.10082497 -2.52280502 115.10082497 -4.14785767 115.10057068 C-6.79077148 114.59936523 -6.79077148 114.59936523 -8.43172359 112.84513855 C-9.94436152 110.34556372 -10.16926081 109.05597877 -10.17845154 106.16578674 C-10.18835617 105.28402771 -10.1982608 104.40226868 -10.20846558 103.49378967 C-10.20396393 102.53419846 -10.19946228 101.57460724 -10.19482422 100.5859375 C-10.20511909 99.06092117 -10.20511909 99.06092117 -10.21562195 97.50509644 C-10.23393449 94.14184635 -10.23004596 90.77906076 -10.22436523 87.41577148 C-10.22892492 85.07933907 -10.23422985 82.74290799 -10.24024963 80.40647888 C-10.24918954 75.50807245 -10.24674755 70.60982897 -10.23681641 65.71142578 C-10.22532636 59.43196294 -10.24553486 53.15306239 -10.27473354 46.87367344 C-10.29307354 42.04811526 -10.29280742 37.22269236 -10.28709602 32.39710808 C-10.28694254 30.08183949 -10.29300935 27.76656188 -10.3053875 25.45132637 C-10.32025344 22.21458723 -10.30965188 18.97889376 -10.29248047 15.7421875 C-10.30214844 14.78462051 -10.31181641 13.82705353 -10.32177734 12.84046936 C-10.27592125 8.71572225 -10.10542551 6.18298564 -8.12133789 2.50289917 C-5.20527251 0.12114794 -3.73921077 -0.01851286 0 0 Z " fill="#191E4D" transform="translate(429.790771484375,216.400634765625)"/>
<path d="M0 0 C3.96 0 7.92 0 12 0 C13.17194297 3.60252876 14.3377536 7.20684371 15.5 10.8125 C16.00080078 12.34874023 16.00080078 12.34874023 16.51171875 13.91601562 C16.82753906 14.89892578 17.14335937 15.88183594 17.46875 16.89453125 C17.76201172 17.80050049 18.05527344 18.70646973 18.35742188 19.63989258 C19 22 19 22 19 25 C20.6437133 24.99333817 20.6437133 24.99333817 22.32063293 24.98654175 C32.63570324 24.94603985 42.95075746 24.91603687 53.26588917 24.89637566 C58.56930156 24.88592793 63.87264988 24.87175068 69.17602539 24.84912109 C74.29180724 24.827428 79.40752738 24.81543883 84.52335167 24.81024551 C86.47743387 24.8065434 88.43151261 24.79931432 90.38556862 24.78853989 C93.11755359 24.77407194 95.84928186 24.77202009 98.58129883 24.77294922 C99.39337799 24.76575867 100.20545715 24.75856812 101.04214478 24.75115967 C104.89513058 24.76538685 106.71680535 24.81120357 110 27 C110.52812661 30.47054631 110.51785945 32.26307411 108.47723389 35.16693115 C105.05617404 37.69839912 102.01659078 37.53131566 97.92675781 37.45410156 C97.11662735 37.45468567 96.30649689 37.45526978 95.47181702 37.45587158 C92.79848129 37.45308852 90.12626553 37.4219869 87.453125 37.390625 C85.59796762 37.38316338 83.74280236 37.37747007 81.88763428 37.37347412 C77.00809923 37.35821155 72.12904147 37.31892436 67.24969482 37.2746582 C62.26939348 37.23371894 57.28901491 37.21546598 52.30859375 37.1953125 C42.53885296 37.15243073 32.76946619 37.08417182 23 37 C24.485 41.95 24.485 41.95 26 47 C26.8054425 46.99555878 27.61088501 46.99111755 28.44073486 46.98654175 C36.03301233 46.94645983 43.62523846 46.91601297 51.21759415 46.89637566 C55.1208574 46.88594052 59.02403318 46.87178629 62.92724609 46.84912109 C66.694393 46.82738301 70.4614558 46.81542934 74.22866058 46.81024551 C75.66556879 46.80655149 77.10247241 46.79933797 78.53934479 46.78853989 C80.55255134 46.774013 82.56584261 46.77318297 84.57910156 46.77294922 C85.72493713 46.768508 86.87077271 46.76406677 88.05133057 46.75949097 C91 47 91 47 95 49 C95.495 54.445 95.495 54.445 96 60 C73.89 60 51.78 60 29 60 C29 61.32 29 62.64 29 64 C29.66 64 30.32 64 31 64 C31.33 65.65 31.66 67.3 32 69 C32.63227005 69.00808685 33.2645401 69.01617371 33.91596985 69.02450562 C40.48577281 69.11044035 47.05527018 69.20993898 53.62475586 69.31738281 C56.07782873 69.35570954 58.53095851 69.39055582 60.98413086 69.421875 C64.50655485 69.46744507 68.02858575 69.52545321 71.55078125 69.5859375 C72.65086014 69.59748871 73.75093903 69.60903992 74.88435364 69.62094116 C75.90518539 69.64081085 76.92601715 69.66068054 77.9777832 69.68115234 C78.87713089 69.69447601 79.77647858 69.70779968 80.70307922 69.7215271 C83 70 83 70 86 72 C86.36328125 74.09375 86.36328125 74.09375 86.3125 76.5 C86.30863281 77.2940625 86.30476563 78.088125 86.30078125 78.90625 C86 81 86 81 84 83 C81.93722534 83.24050903 81.93722534 83.24050903 79.36669922 83.22705078 C77.92543167 83.22682419 77.92543167 83.22682419 76.45504761 83.22659302 C75.41542877 83.21627045 74.37580994 83.20594788 73.3046875 83.1953125 C72.24210724 83.1924826 71.17952698 83.18965271 70.08474731 83.18673706 C66.68138501 83.17551639 63.27828314 83.15040837 59.875 83.125 C57.57161838 83.11497264 55.26823264 83.10584637 52.96484375 83.09765625 C47.30980655 83.07557093 41.65492187 83.04207489 36 83 C36.33 83.66 36.66 84.32 37 85 C37.13415472 87.6723621 37.04318541 90.32250488 37 93 C38.11375 92.95875 39.2275 92.9175 40.375 92.875 C44 93 44 93 46 95 C46.5617519 101.17927095 46.5617519 101.17927095 44.84765625 103.68359375 C42.25405778 105.53146412 40.28770029 105.53824264 37.125 105.625 C36.09632813 105.67914063 35.06765625 105.73328125 34.0078125 105.7890625 C30.18425608 104.78599965 29.12498446 103.40289979 27.05859375 100.13525391 C25.19087721 96.36794558 24.31496689 92.46789295 23.4375 88.375 C23.02349448 86.58922471 22.60682552 84.80406482 22.1875 83.01953125 C21.98769531 82.1579541 21.78789062 81.29637695 21.58203125 80.40869141 C20.32170625 75.19293366 18.64404641 70.10449894 17 65 C14.70090127 57.7369381 12.58000125 50.48702124 10.7734375 43.0859375 C9.0071234 36.03852264 7.08605788 29.01791513 4.66796875 22.1640625 C2.02567216 14.6717174 0.32753344 7.96998046 0 0 Z " fill="#1A204F" transform="translate(177,219)"/>
<path d="M0 0 C0.88558594 0.00128906 1.77117187 0.00257813 2.68359375 0.00390625 C14.1211443 0.15506331 22.22316267 2.55445758 30.703125 10.41796875 C36.50909608 16.49273479 40.54040538 23.18863996 40.9375 31.75 C40.32458679 36.82842372 40.32458679 36.82842372 37.5 39.375 C34.62961948 39.67061076 32.16245255 39.75443016 29.3125 39.625 C28.56291016 39.60695312 27.81332031 39.58890625 27.04101562 39.5703125 C25.1934629 39.52324109 23.34656841 39.45149766 21.5 39.375 C21.25765625 38.63894531 21.0153125 37.90289062 20.765625 37.14453125 C17.62808775 27.86820603 17.62808775 27.86820603 10.4375 21.5625 C4.89889068 19.506321 -1.35202978 19.11891336 -6.87890625 21.32421875 C-11.04725448 23.75767434 -13.2591236 26.04510984 -15.5 30.375 C-15.94792574 33.04458146 -15.94792574 33.04458146 -15.88818359 35.88037109 C-15.89764008 36.95854095 -15.90709656 38.03671082 -15.9168396 39.14755249 C-15.91076691 40.30284454 -15.90469421 41.4581366 -15.8984375 42.6484375 C-15.90130768 43.84554352 -15.90417786 45.04264954 -15.90713501 46.27603149 C-15.9091748 48.80609612 -15.90365094 51.33617655 -15.89111328 53.86621094 C-15.87508764 57.7288769 -15.89095142 61.59049197 -15.91015625 65.453125 C-15.90817325 67.9140648 -15.90432841 70.37500395 -15.8984375 72.8359375 C-15.90451019 73.98718109 -15.91058289 75.13842468 -15.9168396 76.32455444 C-15.86353119 82.4379898 -15.54791594 87.01714237 -12.5 92.375 C-9.60020454 95.126088 -7.10585037 96.57207481 -3.5 98.375 C-3.83 104.315 -4.16 110.255 -4.5 116.375 C-13.58191638 116.375 -20.05152063 114.69615259 -26.68359375 108.25390625 C-35.48922103 97.32735369 -37.814902 86.67603823 -37.765625 72.87890625 C-37.76753845 71.69078842 -37.7694519 70.50267059 -37.77142334 69.27854919 C-37.7727797 66.77480863 -37.76912178 64.2710609 -37.76074219 61.76733398 C-37.75004474 57.95345106 -37.76065166 54.14004017 -37.7734375 50.32617188 C-37.77211562 47.88541564 -37.76955265 45.44465969 -37.765625 43.00390625 C-37.76967346 41.87239639 -37.77372192 40.74088654 -37.77789307 39.5750885 C-37.70618821 27.35221754 -35.68824641 19.70815166 -27.5 10.375 C-19.54421285 2.8099686 -10.85259104 -0.30014444 0 0 Z " fill="#1A1E4D" transform="translate(136.5,215.625)"/>
<path d="M0 0 C22.44 0 44.88 0 68 0 C68.99 3.3 69.98 6.6 71 10 C62.16822504 9.93886574 53.33677582 9.86181611 44.50532722 9.76428509 C40.40477578 9.71950383 36.30432548 9.68026525 32.20361328 9.65356445 C28.24824358 9.62760822 24.29326148 9.58726154 20.33813095 9.53681374 C18.82706386 9.52009273 17.31592965 9.50861113 15.80478287 9.50238609 C13.69251856 9.49280118 11.58125761 9.46481288 9.46923828 9.43237305 C8.26566681 9.42126999 7.06209534 9.41016693 5.822052 9.39872742 C4.89077484 9.26714737 3.95949768 9.13556732 3 9 C1 6 1 6 0 0 Z " fill="#FDFDFC" transform="translate(200,257)"/>
<path d="M0 0 C0.99 0 1.98 0 3 0 C3 36.3 3 72.6 3 110 C2.01 110 1.02 110 0 110 C0 73.7 0 37.4 0 0 Z " fill="#2E305F" transform="translate(509,219)"/>
<path d="M0 0 C2.65708998 0.53430614 3.55924349 1.26587018 5.15625 3.43359375 C5.90961323 9.46049958 5.90961323 9.46049958 3.65625 12.37109375 C-0.09859172 13.96690148 -2.76265309 13.82226965 -6.84375 13.43359375 C-8.84375 12.30859375 -8.84375 12.30859375 -9.84375 10.43359375 C-10.25588321 7.20521695 -10.10143801 5.08640338 -8.90625 2.05859375 C-6.00088977 -0.23047795 -3.61097676 -0.00601829 0 0 Z " fill="#222C61" transform="translate(248.84375,310.56640625)"/>
</svg>
